<?xml version="1.0" encoding="utf-8"?>
<!-- Generator: Adobe Illustrator 27.5.0, SVG Export Plug-In . SVG Version: 6.00 Build 0)  -->
<svg version="1.1" id="Ebene_1" xmlns="http://www.w3.org/2000/svg" xmlns:xlink="http://www.w3.org/1999/xlink" x="0px" y="0px"
	 viewBox="0 0 1024 768" style="enable-background:new 0 0 1024 768;" xml:space="preserve">
<style type="text/css">
	.st0{fill:#465B68;}
	.st1{fill:#FFFFFF;}
</style>
<path d="M-354.7,925.6c34.7,0,69.3,0.1,104,0.1c206.3,0,412.5,0,618.8,0c110.1,0,220.3,0,330.4,0c146.8,0,293.6,0,440.4,0
	c2.2,0,4.3-0.1,6.5-0.1c0,33.3,0,66.7,0,100c-500,0-1000,0-1500,0C-354.7,992.3-354.7,958.9-354.7,925.6z M-200.4,973.7
	c0,4.6-0.1,8.7,0,12.9c0.4,8.4,5.1,11.7,13.4,9.6c0-1.7,0-3.5,0-5.2c-7-1.9-8.3-5.9-6-17.2c7.4-0.9,7.4-0.9,6.4-7
	c-2.2-0.2-4.4-0.4-7.1-0.6c0-3.5,0-6.7,0-10.7c-2.4,1.3-4.8,1.9-5.6,3.3c-1.2,2.1-1.2,4.9-1.7,7.3c-3.3,0-6.3,0-9.8,0
	c0-3.6,0-6.8,0-11.7c-3,2.8-5.5,4.3-6.6,6.5c-1,2,0.7,5.1-2.9,6.4c-0.5,0.2-0.5,4.9,0.3,5.3c3.3,1.5,2.3,4,2.4,6.3
	c0.1,2.8-0.1,5.7,0.1,8.5c0.7,7.6,5.7,10.8,13.4,8.6c0-1.6,0-3.2,0-4.7c-7.1-2.8-7.9-5.2-5.8-17.6
	C-207.2,973.7-204.2,973.7-200.4,973.7z M-268.4,996.7c0-6.7,0-12.9,0-19c0-4.6,3.7-7,7.5-4.5c1.6,1.1,2.6,3.8,2.7,5.8
	c0.4,5.9,0.1,11.8,0.1,18c2.8-0.1,4.7-0.2,7.1-0.3c0-2.7,0-4.8,0-6.9c-0.1-4.7,0.2-9.3-0.3-13.9c-0.7-6.5-5.4-10.2-12.1-9.8
	c-1.5,0.1-2.9,0.3-5.1,0.6c0-3.8,0-7.3,0-10.6c-2.7,0-4.6,0-6.6,0c0,13.8,0,27.2,0,40.8C-272.9,996.7-270.9,996.7-268.4,996.7z
	 M-16.2,967.3c-9.7-4.1-11.7,5.9-17.9,9.3c0-7.5,0-14.2,0-20.9c-2.4,0-4.4,0-6.4,0c0,13.8,0,27.3,0,41.2c2.4-0.1,4.5-0.2,6.4-0.3
	c0.3-3.9,0.6-7.2,1-11.2c6.2,4.2,7.4,14.3,17.6,10.8c-4.1-5.5-8-10.7-12-16C-23.6,975.8-19.9,971.6-16.2,967.3z M-159.7,985
	c0-3.6,0.2-6.4,0-9.2c-0.4-6-5.5-10-12.2-9.9c-7,0.1-11.5,3.9-11.8,10.2c-0.2,3.6-0.1,7.3,0,11c0.2,5.7,3.3,9.3,8.9,10.4
	c6.3,1.3,11.6-1.1,14-6.3c-2.5-2-4.5-3.6-8.1-1c-3.7,2.6-7.3-0.1-7.2-5.1C-171,985-165.8,985-159.7,985z M-230.7,966.7
	c0,7-0.2,13.6,0.1,20.2c0.2,4-1.7,4.9-5.1,4.5c-3.3-0.4-5-2.2-5-5.6c0.1-6.3,0-12.5,0-19.1c-2.6,0-4.6,0-7,0
	c0,7.4-0.2,14.5,0.1,21.6c0.2,4.4,2.7,8,7.1,8.4c5,0.4,10.1-0.5,15.1-1.1c0.7-0.1,1.8-1.6,1.8-2.5c0.1-8.8,0.1-17.5,0.1-26.5
	C-226,966.7-228,966.7-230.7,966.7z M-117.6,968.7c-5.8-3.3-12.5-4.2-16.7-1c-2.4,1.8-4.3,5.4-4.8,8.4c-0.6,3.7,2,6.5,5.9,7.6
	c2.1,0.6,4.3,0.7,6.3,1.5c1.2,0.5,2.1,1.8,3.1,2.8c-1.2,0.9-2.4,2.6-3.6,2.6c-3.6,0.1-7.2-0.5-11.1-0.8c-0.7,1.6-1.4,3.4-2.1,5.1
	c5.9,3,12.8,3.6,17.7,1.7c4.1-1.7,6.5-4.7,6.3-9.2c-0.2-4.3-2.6-7.1-6.8-8.1c-1.6-0.4-3.4-0.3-4.8-1.1c-1.4-0.7-2.5-2.1-3.7-3.2
	c1.5-0.8,3-2.2,4.5-2.2c2.5,0,5.1,0.8,8,1.4C-119,972.3-118.3,970.5-117.6,968.7z M-278.8,968.7c-5.8-3.3-11.7-3.7-16.5-1.4
	c-3.7,1.8-5.4,4.9-5.1,8.9c0.2,3.9,2.3,6.5,6.1,7.5c2.1,0.5,4.3,0.7,6.3,1.5c1.2,0.5,1.9,1.9,2.9,2.9c-1.1,0.8-2.2,2.3-3.3,2.3
	c-3.6,0.1-7.2-0.4-11.3-0.7c-0.6,1.4-1.4,3.2-2.4,5.2c6.4,2.8,12.5,3.7,18.7,1c3.7-1.6,5.5-4.7,5.4-8.8c-0.1-4.2-2.3-6.8-6.3-8
	c-1.6-0.5-3.4-0.4-4.8-1.1c-1.6-0.8-2.8-2.2-4.2-3.4c1.7-0.8,3.3-2.1,5-2.2c2.4-0.1,4.8,0.9,7.4,1.4
	C-280.1,972.3-279.5,970.5-278.8,968.7z M-43.7,974.3c-2.3-6.4-7.1-9.2-13.8-8.2c-6.6,0.9-9.8,4.4-10,10.9c-0.1,3.7-0.2,7.3,0.1,11
	c0.4,5.8,4.5,9.3,10.8,9.7c6.8,0.4,11.4-2.6,12.6-8.5c-1.6-0.7-3.3-1.3-4.7-1.9c-1.7,1.2-3.1,2.8-4.7,3.1c-1.9,0.3-5.6-0.4-5.8-1.1
	c-0.8-4.5-1.1-9.1-0.8-13.6c0.1-1.1,3-2.8,4.5-2.7c2.2,0.2,4.4,1.8,7.2,3.1C-47.3,975.7-45.5,975-43.7,974.3z M-104.9,956.6
	c-0.5-0.3-1.1-0.7-1.6-1c-1.8,1.8-4.1,3.4-5.1,5.5c-1,2,1,5.4-3.1,6.1c-0.2,0-0.3,5.3,0.4,5.5c3.4,1,2.5,3.4,2.6,5.6
	c0.1,2.7,0,5.3,0,8c0.1,8.4,4.5,11.7,13.2,10c0-1.7,0-3.5,0-5.2c-6.6-2.2-8.2-7.4-5.5-17.4c2.1-0.2,4.1-0.5,6.2-0.7
	c0-2.3,0-4.2,0-6.2c-2.4-0.2-4.5-0.4-7-0.6C-104.9,962.8-104.9,959.7-104.9,956.6z M-149.4,996.6c0-4.7,0-9.1,0-13.5
	c0-9.3,0-9.3,8.6-11c0-1.8,0-3.6,0-5.3c-7-2.1-14.2,0.8-14.8,6.7c-0.7,7.6-0.2,15.4-0.2,23.1C-153.5,996.6-151.7,996.6-149.4,996.6z
	 M-80,973.1c0-2,0-4.1,0-6.1c-9.7-2.3-18.1,0.9-14.7,15.3c2,0,4.1,0,6.1,0C-88.1,974.6-88.1,974.6-80,973.1z M-85.4,996.2
	c10.6,2.3,15.4-0.8,15.5-9.9c0-5.9-0.7-6.4-7.3-4.5c2.4,7.2-1.8,8.8-8.2,8.1C-85.4,992.5-85.4,994.4-85.4,996.2z M940.6,957.7
	c-0.5,0.1-1,0.2-1.5,0.3c0,3.7,0,7.4,0,11.2c0.3,0,0.6,0,1,0c0.1-1.7,0.3-3.5,0.5-5.9c1.2,2.6,2,4.6,3.3,7.5c1.3-3.1,2.1-5,3.1-7.5
	c0.3,2.5,0.6,4.2,0.8,6c0.2-0.1,0.4-0.1,0.6-0.2c0-3.7,0-7.4,0-11.2c-0.4-0.1-0.9-0.1-1.3-0.2c-1,2.7-2.1,5.4-3.3,8.5
	C942.6,963.1,941.6,960.4,940.6,957.7z M1066.9,962.4c1.6,2.8,2.8,4.7,3.9,6.6c1.1-1.6,3.2-3.2,3.1-4.7c-0.1-1.8-2-3.5-3.1-5.3
	C1069.8,960,1068.6,960.9,1066.9,962.4z M1021.2,963.1c1.6,2.4,2.8,4.2,3.9,5.9c1.2-1.9,3.1-3.6,3.4-5.6c0.2-1.3-1.9-2.9-3-4.3
	C1024.2,960.3,1022.9,961.5,1021.2,963.1z M950.3,969c0.3,0.3,0.6,0.6,0.9,0.9c2.4-5.4,4.9-3.7,8-0.9c-1.2-3.8-2.4-7.6-3.6-11.4
	c-0.6,0-1.1,0.1-1.7,0.1C952.7,961.5,951.5,965.2,950.3,969z M971.1,969.4c2,0,3.7,0,5.4,0c-1.5-1.1-2.8-2-4-3c1.1-1,2.3-2,3.2-2.9
	c-1-0.8-2.1-1.5-3.1-2.3c1.3-1,2.6-2,4.1-3.1C969.9,957.3,969.3,958.6,971.1,969.4z M986.3,970.7c2.9-1.3,6.3-1.7,7-3.3
	c1-2.2,0.8-5.7-0.3-7.9c-0.7-1.4-4-1.6-6.7-2.5C986.3,961.8,986.3,965.4,986.3,970.7z M967,963.1c-0.4,0.3-0.8,0.6-1.3,0.8
	c0.3,1,1,2.1,0.9,3.1c-0.1,0.5-1.8,1.3-2.3,1.1c-0.8-0.4-1.8-1.5-1.9-2.4c-0.1-1.9-0.2-4.3,0.8-5.6c0.6-0.8,3.3-0.1,5-0.1
	c0.1-0.4,0.1-0.8,0.2-1.2c-1.8-0.3-4.7-1.3-5.3-0.6c-1.5,1.8-2.4,4.4-2.5,6.8c-0.1,1.5,1.6,4.4,2.6,4.4c1.8,0.1,3.8-1.3,5.5-2.5
	C968.7,966.6,967.5,964.4,967,963.1z M-9.7,974c1.4-2.5,3-4,2.8-5.2c-0.2-1.2-2.3-3.1-3.4-3c-1.2,0.1-3.1,2.2-3.1,3.4
	C-13.4,970.4-11.5,971.7-9.7,974z M1045.5,994.2c1.6-1.9,3.1-3,3.1-4.1c0-1.1-1.4-2.4-2.5-3c-0.5-0.2-2.7,1.2-2.6,1.8
	C1043.5,990.5,1044.4,991.8,1045.5,994.2z"/>
<path class="st0" d="M431.2,459.4c-1.1,1.4-2.4,2.8-3.4,4.3c-1.8,2.8-3.8,5.5-5,8.5c-1.7,4.3,0.3,8.2,4.5,10.2
	c5.7,2.8,11.6,2.6,17.6,1.8c14.2-1.7,26.9-7.4,38.7-15.2c10.2-6.7,19.7-14.3,27.7-23.7c4.8-5.6,8.8-11.6,10.8-19
	c1.8-6.9-0.2-12.8-3.2-18.6c-3.3-6.6-7.4-12.7-10.3-19.5c-5.9-13.7-2.5-27.5,8.6-37.4c9.5-8.4,20.6-12.5,33.2-10.4
	c11,1.8,18.4,8.6,22.3,19c1.2,3.1,1.9,6.7,1.9,10c0,3.8,1.5,6.3,4.3,8.5c1.3,1.1,2.7,2.1,3.9,3.3c2.6,2.7,2.4,4.9-0.3,7.4
	c-0.4,0.4-1.1,0.9-1.2,1.3c-0.2,3.1-0.3,6.2-0.4,9.3c0,1.5-0.1,2.9-0.1,4.4c0,1.3-0.5,2.8-0.1,3.9c1.8,4.6,0,8-5,9.1
	c-2.5,0.5-4.9,1.1-7.4,1.6c-2.8,0.6-4.9,2-5,5.1c-0.2,2.8,1.5,4.8,4.8,5.8c1.7,0.5,3.4,1,5.2,1.4c0.1,0.4,0.2,0.7,0.2,1.1
	c-2.7,1.1-5.4,2.1-8.1,3.3c-3.9,1.7-8,3.2-11.7,5.2c-1.2,0.6-1.6,2.6-2.4,4c1.5-0.3,3-0.4,4.5-0.8c5.6-1.6,11.2-3.4,16.8-4.9
	c4.6-1.3,7.9-3.5,9.9-8.3c3.1-7.5,8.6-12.2,16.9-14.1c7.7-1.8,14.5,0.5,21.3,2.4c-0.8,4.5-1.7,8.7-2.2,12.9
	c-0.1,1.1,0.7,2.4,1.2,3.6c0.9-1,2.1-1.8,2.5-2.9c2.8-7.9,6.3-15.3,13.8-19.9c6.2-3.8,12.8-5,20-3.6c6.8,1.3,12.9,3.9,18.6,7.6
	c0.9,0.6,2.2,0.4,3.3,0.5c-0.4-0.9-0.5-2.2-1.2-2.8c-3.7-3-7.3-6.5-11.6-8.5c-3.7-1.8-5-4.5-6-7.9c-2-6.6-3.4-13.4-7.5-19.1
	c-2.3-3.2-4.8-6.2-7.5-9c-3.2-3.3-6.4-2.6-8.6,1.5c-1.3,2.5-4.9,2.9-6.5,0.5c-1.2-1.8-1.9-3.9-2.8-5.9c-0.5-1.1-0.9-2.1-1.4-3.2
	c-0.3,0.1-0.7,0.2-1,0.3c0.5,2,0.9,4.1,1.4,6.1c0.4,1.5,1.3,3,1.5,4.6c0.1,1-0.5,2.8-1.2,3c-1,0.3-3.1-0.1-3.4-0.8
	c-1.3-2.8-2.2-5.8-3.1-8.7c-0.4-1.4-0.7-2.8-1-4.3c-0.4,0.1-0.7,0.1-1.1,0.2c0.4,2.9,0.8,5.7,1.2,8.6c0.1,0.6,0.5,1.2,0.5,1.7
	c0,1.4,0.9,3.3-1.5,3.6c-2.2,0.3-4-0.5-4.2-2.8c-0.2-3.3,0.1-6.7,0.1-10c0-0.4,0-0.8,0-1.7c-0.8,0.7-1.4,1-1.5,1.5
	c-0.4,1.8-0.6,3.6-1.1,5.3c-0.4,1.4-1.1,2.8-1.6,4.2c-1.1-1.1-2.8-2-3.3-3.3c-3.8-9.4,0.1-15.4,9.5-18.5c8.8-2.9,17.8-5,26.9-7.1
	c5-1.2,9,1.5,12.6,4.5c11.7,9.7,23.5,19.2,34.8,29.3c8.3,7.5,15.3,16.3,21.1,25.9c6.6,11,4.3,18.4-2.8,27.1
	c-8.5,10.4-18.7,18.9-30.9,24.8c-14.5,7-29.7,8.8-45.5,5.2c-3.4-0.8-7-0.9-10.6-1.1c-1,0-2.1,1.1-3.1,1.7c1,0.7,2,1.9,3.1,2
	c4.1,0.3,8,0.9,11.3,3.5c3,2.3,2.9,3.5,0.1,5.8c-10.3,8.3-21.7,14.6-33.6,20c-12.3,5.7-24.8,11-37.5,15.9
	c-8.3,3.3-16.9,5.9-25.6,8.2c-11.8,3.2-23.6,6.2-35.5,8.7c-16.3,3.4-32.9,4.8-49.5,3.2c-13.6-1.3-26.7-4.6-37.4-13.9
	c-8.7-7.6-12.4-17.1-9.5-28.5c2-7.8,6.8-14,12.9-19c3.9-3.2,8.4-5.9,12.6-8.7c0.4-0.3,1.1-0.3,1.7-0.5
	C430.7,459,431,459.2,431.2,459.4z M533,477.3c1.9-1.5,3.9-2.8,5.9-4.2c5.8-4,11.3-8.4,15.2-14.5c0.3-0.5,0.4-1.1,0.7-2
	c-0.7,0.2-1.1,0.2-1.3,0.4c-9.4,7.9-19.9,13.8-31.2,18.7c-14.8,6.5-30,11.7-45.8,15.1c-12.8,2.7-25.8,4.9-39.1,2.8
	c-9.4-1.5-17.4-4.4-20.5-14.9c-0.3,1.1-0.7,2.2-0.7,3.3c-0.3,6.6,2.5,11.5,8.2,14.8c8.3,4.8,17.4,4.7,26.6,4.6
	c12.4-0.2,24.5-2.4,36.4-5.7c13.3-3.6,26.2-8,38.3-14.7 M535.6,489.6c-0.9,0.6-1.7,1.3-2.6,1.9c-7.7,5.2-16.3,8.6-25.1,11.5
	c-11.7,3.9-23.8,6.5-36,7.9c-8.3,1-16.8,0.8-25.2,0.9c-7.1,0.1-14.1-1.1-20.7-4c-6.3-2.7-11.3-6.7-12.3-14.1
	c-0.1-0.8-0.6-1.5-1.1-2.9c-2.2,10.2,1.4,17.9,9.5,22.6c9.1,5.2,19.3,6.4,29.3,6.6c9.2,0.2,18.6-1.2,27.8-2.5
	c14.4-2,28.1-6.4,40.9-13.4C526.4,500.7,532.3,496.6,535.6,489.6z M541,482c-0.2-0.2-0.7-0.9-1.2-1.6c-0.7,0.6-1.9,1.2-2,1.9
	c-0.3,1.8-0.9,2.6-2.8,2.9c-0.6,0.1-1.1,1.2-1.7,1.9c0.7,0.5,1.3,1.2,2,1.3C538.4,488.9,540.8,486.4,541,482z"/>
<path class="st0" d="M469.9,276.4c4.4,1.4,8.4,2.7,12.4,3.8c4.1,1.1,8.2,2.1,12.4,2.8c18.2,2.8,36.6,3,54.9,1.6
	c4.2-0.3,8.4-1.1,12.6-1.7c1-0.1,2.1-0.5,2.8-1.1c0.5-0.5,0.8-1.6,0.7-2.3c-0.1-0.5-1-1.3-1.6-1.3c-1.7-0.1-3.5,0-5.2,0.1
	c-19.7,2.1-39.3,1.5-58.9-1c-8.6-1.1-17.2-2.5-25.1-6.5c-1-0.5-1.9-1.1-2.8-1.8c-3-2.4-3-5.2,0.2-7.4c5.1-3.6,11-4.9,16.9-6.1
	c21.5-4.5,43.3-4.6,65.1-3.2c9.9,0.6,19.7,2.3,29.4,4.1c4.2,0.8,8.1,2.9,12,4.6c2.7,1.2,3.6,3.4,3.6,6.4c-0.1,13.5,0,27-0.1,40.5
	c0,2,0.6,3.2,2.1,4.2c9,6.2,15.6,14.4,20.3,24.1c0.2,0.4,0.3,0.7,0.4,1.1c0.2,0.6,0.4,1.1,0.6,1.8c-4.3,1.5-8.6,2.9-12.8,4.6
	c-5.8,2.3-10.6,6-13.3,11.7c-4.4,9.2-1.3,19.3,7.3,24.9c5.9,3.9,12.3,5.4,19.3,5.2c1.3,0,2.6,0,4.3,0c0,7.1,0.1,13.9-0.1,20.8
	c-0.1,2.4-3.1,4.2-5.6,3.3c-8.6-2.9-17.4-3.8-26.3-1.8c-0.8,0.2-1.5,0.5-2.3,0.7c-0.7,0.2-1.4,0.5-2.2,0.7c0-5.1,0-9.8,0-14.6
	c0-0.7,0.2-1.5,0.6-2c4.2-5.4,3-11.2-1.5-15.9c-3.9-4.1-6.2-8.2-7.3-14c-2.7-14.3-11.3-24.4-25-29.5c-7.7-2.9-15.8-3-23.9-0.9
	c-15,3.9-26.6,12.2-33.5,26.3c-4.7,9.6-5.2,19.9-1.3,29.8c2.9,7.4,7,14.2,10.7,21.3c3.2,6.1,5.8,12.4,1.9,18.9
	c-3.2,5.3-6.8,10.5-11.1,14.9c-10,10.6-21.8,19.1-34.9,25.3c-6.1,2.9-13,4.3-19.5,6.2c-1.4,0.4-3,0.2-4.8,0.4c0-1.6,0-2.9,0-4.1
	c0-36.1,0-72.2,0-108.4c0-19.1,7.4-35,21.8-47.5c0.7-0.6,2.4-0.8,3-0.3c4.8,3.7,10.4,5.3,16,6.8c13.9,3.6,28.2,4.2,42.5,4.2
	c13.1,0,26.2-0.4,39-3c1.5-0.3,2.9-0.8,4.2-1.5c0.6-0.3,1.1-1.4,1.1-2.1c0-0.4-1.1-1.2-1.7-1.2c-2.7,0-5.5,0-8.2,0.3
	c-18.1,2.4-36.2,2.1-54.3,0.5c-7.9-0.7-15.7-2.8-23.4-4.6c-3-0.7-5.8-2.3-8.3-4.2c-1.5-1.1-3.1-3.3-3.2-5.1
	C469.8,295.7,469.9,286.1,469.9,276.4z M528.2,298.7c0.2,0.3,0.7,1.1,1.3,1.9c0.5-0.8,0.8-1.7,1.4-2.4c0.7-0.8,1.6-1.4,2.3-2.1
	c0.5-0.5,0.9-1.1,1.3-1.6c-0.5-0.4-1-0.9-1.5-1C530.1,293.1,528.1,295,528.2,298.7z M540.1,302.7c-0.1-0.2-0.6-1.1-1.1-1.9
	c-0.4,0.8-0.8,1.7-1.4,2.4c-0.7,0.8-1.6,1.4-2.3,2.2c-0.5,0.5-0.9,1.1-1.3,1.6c0.6,0.3,1.1,0.8,1.7,0.9
	C538.5,308.1,540.2,306.4,540.1,302.7z"/>
<path class="st0" d="M627.2,487.5c0.1,1.5,0.2,2.5,0.2,3.6c0,5.5,0,11,0,16.4c0,14.7-5.8,26.4-18.5,33.9c-5.5,3.2-12,5.2-18.3,6.8
	c-22.5,5.6-45.5,6.3-68.5,5.5c-9.9-0.3-19.9-1.1-29.6-2.6c-10.3-1.6-20.6-3.7-30.1-8.4c-1.9-0.9-3.6-2.1-5.3-3.7c3,0,5.9,0,8.9,0
	c14.3,0,28.5-1.9,42.4-5.4c16-4,32.1-8.1,47.8-13.3c21.4-7.1,42.1-16.3,61.9-27.2C620.9,491.4,623.8,489.5,627.2,487.5z"/>
<path class="st1" d="M-200.4,973.7c-3.8,0-6.7,0-9.6,0c-2,12.4-1.2,14.9,5.8,17.6c0,1.6,0,3.2,0,4.7c-7.7,2.2-12.7-1-13.4-8.6
	c-0.3-2.8,0-5.7-0.1-8.5c-0.1-2.3,0.9-4.8-2.4-6.3c-0.8-0.4-0.8-5.1-0.3-5.3c3.6-1.3,1.9-4.4,2.9-6.4c1.1-2.2,3.6-3.7,6.6-6.5
	c0,4.8,0,8.1,0,11.7c3.5,0,6.6,0,9.8,0c0.5-2.4,0.5-5.1,1.7-7.3c0.8-1.4,3.2-2,5.6-3.3c0,3.9,0,7.2,0,10.7c2.7,0.2,4.9,0.4,7.1,0.6
	c1.1,6,1.1,6-6.4,7c-2.4,11.3-1,15.3,6,17.2c0,1.7,0,3.5,0,5.2c-8.3,2.1-13.1-1.2-13.4-9.6C-200.6,982.4-200.4,978.3-200.4,973.7z"
	/>
<path class="st1" d="M-268.4,996.7c-2.6,0-4.5,0-6.7,0c0-13.7,0-27,0-40.8c2,0,3.9,0,6.6,0c0,3.3,0,6.8,0,10.6
	c2.2-0.3,3.7-0.5,5.1-0.6c6.7-0.3,11.5,3.4,12.1,9.8c0.5,4.6,0.2,9.3,0.3,13.9c0,2.1,0,4.3,0,6.9c-2.4,0.1-4.3,0.2-7.1,0.3
	c0-6.2,0.2-12.1-0.1-18c-0.1-2-1.2-4.8-2.7-5.8c-3.7-2.5-7.4-0.1-7.5,4.5C-268.4,983.8-268.4,989.9-268.4,996.7z"/>
<path class="st1" d="M-16.2,967.3c-3.8,4.3-7.4,8.5-11.3,13c3.9,5.3,7.9,10.5,12,16c-10.2,3.5-11.4-6.6-17.6-10.8
	c-0.3,4-0.6,7.3-1,11.2c-2,0.1-4,0.2-6.4,0.3c0-13.9,0-27.4,0-41.2c2.1,0,4,0,6.4,0c0,6.7,0,13.4,0,20.9
	C-27.8,973.2-25.9,963.2-16.2,967.3z"/>
<path class="st1" d="M-159.7,985c-6,0-11.3,0-16.5,0c-0.1,5.1,3.5,7.8,7.2,5.1c3.6-2.6,5.6-1,8.1,1c-2.4,5.2-7.7,7.6-14,6.3
	c-5.5-1.1-8.7-4.7-8.9-10.4c-0.1-3.7-0.2-7.3,0-11c0.3-6.3,4.8-10.1,11.8-10.2c6.7-0.1,11.8,3.9,12.2,9.9
	C-159.6,978.6-159.7,981.4-159.7,985z M-176.4,979c3.2,0,6.3,0,9.4,0c0.7-4-0.9-6.1-4.6-6.2C-175.2,972.6-177.1,974.4-176.4,979z"/>
<path class="st1" d="M-230.7,966.7c2.7,0,4.7,0,7.1,0c0,9,0.1,17.8-0.1,26.5c0,0.9-1.1,2.4-1.8,2.5c-5,0.6-10.1,1.5-15.1,1.1
	c-4.4-0.4-6.9-4-7.1-8.4c-0.3-7.1-0.1-14.2-0.1-21.6c2.4,0,4.4,0,7,0c0,6.5,0.1,12.8,0,19.1c0,3.5,1.7,5.2,5,5.6
	c3.4,0.4,5.3-0.5,5.1-4.5C-230.9,980.4-230.7,973.8-230.7,966.7z"/>
<path class="st1" d="M-117.6,968.7c-0.6,1.7-1.3,3.5-2,5.4c-2.9-0.5-5.4-1.4-8-1.4c-1.5,0-3,1.4-4.5,2.2c1.2,1.1,2.3,2.5,3.7,3.2
	c1.4,0.7,3.2,0.7,4.8,1.1c4.2,1,6.6,3.8,6.8,8.1c0.2,4.5-2.2,7.5-6.3,9.2c-4.8,2-11.8,1.4-17.7-1.7c0.7-1.7,1.5-3.5,2.1-5.1
	c3.9,0.3,7.5,0.9,11.1,0.8c1.2,0,2.4-1.7,3.6-2.6c-1-1-1.9-2.3-3.1-2.8c-2-0.8-4.2-0.9-6.3-1.5c-3.8-1.1-6.4-3.9-5.9-7.6
	c0.5-3,2.4-6.6,4.8-8.4C-130.1,964.6-123.5,965.4-117.6,968.7z"/>
<path class="st1" d="M-278.8,968.7c-0.7,1.7-1.3,3.5-2.1,5.4c-2.6-0.6-5-1.5-7.4-1.4c-1.7,0-3.4,1.4-5,2.2c1.4,1.1,2.6,2.6,4.2,3.4
	c1.4,0.7,3.2,0.7,4.8,1.1c4,1.1,6.2,3.8,6.3,8c0.1,4.1-1.7,7.2-5.4,8.8c-6.2,2.7-12.3,1.8-18.7-1c0.9-2.1,1.7-3.8,2.4-5.2
	c4.1,0.3,7.7,0.8,11.3,0.7c1.1,0,2.2-1.5,3.3-2.3c-0.9-1-1.7-2.4-2.9-2.9c-2-0.8-4.2-1-6.3-1.5c-3.8-1-5.9-3.6-6.1-7.5
	c-0.2-4,1.4-7.1,5.1-8.9C-290.5,965.1-284.6,965.5-278.8,968.7z"/>
<path class="st1" d="M-43.7,974.3c-1.8,0.7-3.6,1.4-4.5,1.8c-2.9-1.3-5-2.9-7.2-3.1c-1.5-0.1-4.5,1.6-4.5,2.7
	c-0.3,4.5,0,9.1,0.8,13.6c0.1,0.7,3.8,1.4,5.8,1.1c1.6-0.2,3-1.9,4.7-3.1c1.4,0.6,3.1,1.2,4.7,1.9c-1.2,5.9-5.8,8.9-12.6,8.5
	c-6.3-0.4-10.3-3.9-10.8-9.7c-0.3-3.6-0.2-7.3-0.1-11c0.2-6.5,3.4-10,10-10.9C-50.8,965.1-46,967.9-43.7,974.3z"/>
<path class="st1" d="M-104.9,956.6c0,3.1,0,6.2,0,9.6c2.5,0.2,4.6,0.4,7,0.6c0,2,0,3.9,0,6.2c-2.1,0.2-4.2,0.5-6.2,0.7
	c-2.7,10-1.1,15.3,5.5,17.4c0,1.7,0,3.4,0,5.2c-8.7,1.8-13.1-1.6-13.2-10c0-2.7,0-5.3,0-8c-0.1-2.2,0.8-4.6-2.6-5.6
	c-0.7-0.2-0.6-5.5-0.4-5.5c4.1-0.7,2.2-4.1,3.1-6.1c1.1-2.2,3.4-3.7,5.1-5.5C-106,955.9-105.4,956.2-104.9,956.6z"/>
<path class="st1" d="M-149.4,996.6c-2.3,0-4.1,0-6.4,0c0-7.7-0.5-15.5,0.2-23.1c0.6-5.9,7.8-8.8,14.8-6.7c0,1.7,0,3.5,0,5.3
	c-8.6,1.7-8.6,1.7-8.6,11C-149.4,987.5-149.4,991.9-149.4,996.6z"/>
<path class="st1" d="M-80,973.1c-8,1.5-8,1.5-8.6,9.2c-2,0-4,0-6.1,0c-3.3-14.4,5-17.6,14.7-15.3C-80,969-80,971.1-80,973.1z"/>
<path class="st1" d="M-85.4,996.2c0-1.8,0-3.7,0-6.2c6.3,0.7,10.6-0.9,8.2-8.1c6.6-1.9,7.3-1.4,7.3,4.5
	C-70,995.4-74.8,998.5-85.4,996.2z"/>
<path class="st1" d="M940.6,957.7c1,2.7,2,5.4,3.2,8.5c1.2-3.1,2.2-5.8,3.3-8.5c0.4,0.1,0.9,0.1,1.3,0.2c0,3.7,0,7.4,0,11.2
	c-0.2,0.1-0.4,0.1-0.6,0.2c-0.2-1.8-0.5-3.5-0.8-6c-1,2.4-1.8,4.3-3.1,7.5c-1.3-2.9-2.1-4.9-3.3-7.5c-0.2,2.5-0.3,4.2-0.5,5.9
	c-0.3,0-0.6,0-1,0c0-3.7,0-7.4,0-11.2C939.6,957.9,940.1,957.8,940.6,957.7z"/>
<path d="M1066.9,962.4c1.7-1.4,2.8-2.4,3.9-3.4c1.1,1.8,3,3.5,3.1,5.3c0.1,1.5-2,3.1-3.1,4.7
	C1069.7,967.1,1068.6,965.1,1066.9,962.4z"/>
<path d="M1021.2,963.1c1.8-1.7,3-2.8,4.3-4c1.1,1.5,3.2,3.1,3,4.3c-0.3,2-2.2,3.7-3.4,5.6C1023.9,967.3,1022.8,965.6,1021.2,963.1z"
	/>
<path class="st1" d="M950.3,969c1.2-3.8,2.4-7.5,3.6-11.3c0.6,0,1.1-0.1,1.7-0.1c1.2,3.8,2.4,7.6,3.6,11.4c-3.1-2.9-5.5-4.6-8,0.9
	C950.9,969.6,950.6,969.3,950.3,969z"/>
<path class="st1" d="M971.1,969.4c-1.7-10.8-1.1-12.1,5.5-11.3c-1.5,1.1-2.8,2.1-4.1,3.1c1.1,0.8,2.1,1.6,3.1,2.3
	c-0.9,0.8-2,1.8-3.2,2.9c1.3,0.9,2.6,1.9,4,3C974.8,969.4,973.1,969.4,971.1,969.4z"/>
<path class="st1" d="M986.3,970.7c0-5.3,0-8.9,0-13.6c2.7,0.9,6,1,6.7,2.5c1.1,2.2,1.4,5.7,0.3,7.9
	C992.6,969,989.3,969.4,986.3,970.7z M987.3,960.1c0.7,2.7,1.3,5.3,2,8c1-1.2,2.7-2.2,2.9-3.5C992.5,962,992.9,958.8,987.3,960.1z"
	/>
<path class="st1" d="M967,963.1c0.5,1.3,1.8,3.5,1.5,3.7c-1.6,1.2-3.6,2.6-5.5,2.5c-1,0-2.6-2.9-2.6-4.4c0.1-2.3,1-5,2.5-6.8
	c0.6-0.8,3.5,0.3,5.3,0.6c-0.1,0.4-0.1,0.8-0.2,1.2c-1.7,0-4.4-0.7-5,0.1c-1,1.4-0.9,3.7-0.8,5.6c0,0.9,1,2,1.9,2.4
	c0.6,0.2,2.3-0.6,2.3-1.1c0.1-1-0.5-2-0.9-3.1C966.1,963.6,966.5,963.4,967,963.1z"/>
<path class="st1" d="M-9.7,974c-1.8-2.3-3.7-3.6-3.7-4.8c0-1.2,1.9-3.3,3.1-3.4c1.1-0.1,3.2,1.8,3.4,3C-6.6,970-8.3,971.5-9.7,974z"
	/>
<path d="M1045.5,994.2c-1-2.4-2-3.8-2.1-5.2c0-0.6,2.1-2.1,2.6-1.8c1.1,0.5,2.5,1.9,2.5,3C1048.6,991.2,1047,992.3,1045.5,994.2z"/>
<path class="st0" d="M541,482c-0.2,4.3-2.6,6.9-5.6,6.4c-0.7-0.1-1.3-0.9-2-1.3c0.6-0.7,1.1-1.8,1.7-1.9c1.9-0.2,2.5-1.1,2.8-2.9
	c0.1-0.7,1.3-1.3,2-1.9C540.3,481.1,540.8,481.8,541,482z"/>
<path d="M-176.4,979c-0.7-4.5,1.2-6.4,4.8-6.2c3.7,0.1,5.3,2.2,4.6,6.2C-170.2,979-173.2,979-176.4,979z"/>
<path d="M987.3,960.1c5.6-1.3,5.2,1.9,4.8,4.4c-0.2,1.3-1.9,2.4-2.9,3.5C988.6,965.4,987.9,962.8,987.3,960.1z"/>
</svg>
